<?xml version="1.0" encoding="UTF-8"?>
<svg width="218px" height="44px" viewBox="0 0 218 44" version="1.1" xmlns="http://www.w3.org/2000/svg" xmlns:xlink="http://www.w3.org/1999/xlink">
    <!-- Generator: Sketch 52.5 (67469) - http://www.bohemiancoding.com/sketch -->
    <title>Group 50</title>
    <desc>Created with Sketch.</desc>
    <defs>
        <path d="M22.826,0 L22.826,7.067 C22.826,8.141 22.91,9.215 23.078,10.274 L23.447,12.607 L23.059,12.742 L21.842,10.84 C21.187,9.816 20.444,8.856 19.617,7.972 L12.174,0 L0,0 L0,25 L12.174,25 L12.174,17.932 C12.174,16.859 12.09,15.785 11.921,14.727 L11.552,12.392 L11.941,12.257 L13.158,14.16 C13.813,15.184 14.556,16.144 15.383,17.028 L22.826,25 L35,25 L35,0 L22.826,0 Z" id="path-1"></path>
        <path d="M0,13 C0,21.078 8.327,26 20.625,26 C27.297,26 33.229,24.002 36.997,20.906 L36.999,20.906 L36.999,20.904 L37,9.929 L18.629,9.929 L18.629,15.987 L24.752,15.987 L24.752,18 C23.497,18.898 21.898,19.438 20.159,19.438 C16.119,19.438 12.846,16.537 12.846,12.958 C12.846,9.38 16.119,6.479 20.159,6.479 C22.095,6.479 23.853,7.147 25.162,8.233 L35.218,4.45 L35.218,3.813 C31.484,1.457 26.325,0 20.625,0 C8.327,0 0,4.924 0,13 Z" id="path-3"></path>
        <path d="M0.194,8.444 C0.194,17.725 15.659,14.963 15.659,17.992 C15.659,20.124 8.41,19.556 2.416,17.113 L0,23.171 C2.706,24.539 7.824,26 13.342,26 C21.174,26 29,23.382 29,17.557 C29,8.275 13.532,11.037 13.532,8.008 C13.532,5.876 20.518,6.226 24.965,8.18 L27.383,2.121 C24.848,0.971 21.445,0 15.851,0 C8.018,0 0.194,2.622 0.194,8.444 Z" id="path-5"></path>
        <path d="M12,0 L0,24.496 L0,25 L12,25 L13.208,21.528 L22.792,21.528 L24,25 L36,25 L36,24.51 L24,0 L12,0 Z M16.204,12.917 C16.829,11.124 17.363,9.297 17.807,7.447 L18.193,7.447 C18.637,9.297 19.172,11.124 19.796,12.917 L20.618,15.277 L15.382,15.277 L16.204,12.917 Z" id="path-7"></path>
        <path d="M0,0 L0,10 L6.244,10 C7.768,10 9,8.943 9,7.302 C9,6 8.321,5.2 7.352,4.857 C8.058,4.458 8.585,3.729 8.585,2.699 C8.585,1.214 7.49,0 5.831,0 L0,0 Z M3.046,2.428 L4.665,2.428 C5.262,2.428 5.539,2.642 5.539,3.129 C5.539,3.614 5.262,3.829 4.665,3.829 L3.046,3.829 L3.046,2.428 Z M3.046,6.143 L5.026,6.143 C5.635,6.143 5.954,6.386 5.954,6.857 C5.954,7.329 5.635,7.572 5.026,7.572 L3.046,7.572 L3.046,6.143 Z" id="path-9"></path>
        <path d="M6,0 L6,5.908 C6,6.69 5.454,7.151 4.513,7.151 C3.559,7.151 3,6.69 3,5.908 L3,0 L0,0 L0,5.908 C0,8.477 1.677,10 4.5,10 C7.323,10 9,8.477 9,5.908 L9,0 L6,0 Z" id="path-11"></path>
        <path d="M0,0 L0,10 L4.17,10 C6.922,10 9,7.843 9,5 C9,2.157 6.922,0 4.17,0 L0,0 Z M2.911,2.857 L4.17,2.857 C5.307,2.857 6.089,3.716 6.089,5 C6.089,6.285 5.307,7.143 4.17,7.143 L2.911,7.143 L2.911,2.857 Z" id="path-13"></path>
        <path d="M0,5.013 C0,7.719 2.014,10 5.63,10 C7.545,10 9.078,9.358 10,8.278 L10,4.18 L5.39,4.18 L5.39,6.503 L7.163,6.503 L7.163,7.104 C6.751,7.309 6.312,7.391 5.757,7.391 C3.928,7.391 3.177,6.421 3.177,5.042 C3.177,3.593 4,2.732 5.347,2.732 C6.397,2.732 6.865,3.266 7.148,3.771 L9.815,2.514 C9.106,0.984 7.488,0 5.347,0 C2.07,0 0,2.281 0,5.013 Z" id="path-15"></path>
        <path d="M0.243,3.389 C0.243,5.642 2.104,5.957 4.184,6.297 C5.721,6.543 6.032,6.626 6.032,6.913 C6.032,7.309 5.532,7.404 4.668,7.404 C3.347,7.404 2.213,7.077 1.201,6.257 L0,8.743 C1.268,9.563 2.686,10 4.44,10 C7.124,10 9,8.934 9,6.734 C9,4.481 7.085,4.031 5.045,3.717 C3.508,3.484 3.211,3.375 3.211,3.101 C3.211,2.8 3.44,2.541 4.453,2.541 C5.263,2.541 6.071,2.706 6.329,3.415 L8.676,2.227 C8.123,0.97 6.733,0 4.479,0 C2.011,0 0.243,1.23 0.243,3.389 Z" id="path-17"></path>
        <path d="M6,0 L6,5.908 C6,6.69 5.455,7.151 4.514,7.151 C3.56,7.151 3,6.69 3,5.908 L3,0 L0,0 L0,5.908 C0,8.477 1.679,10 4.501,10 C7.322,10 9,8.477 9,5.908 L9,0 L6,0 Z" id="path-19"></path>
        <path d="M0,0 L0,10 L3.046,10 L3.046,7.285 L5.4,7.285 C7.491,7.285 9,5.829 9,3.643 C9,1.458 7.491,0 5.4,0 L0,0 Z M3.046,2.715 L4.93,2.715 C5.552,2.715 5.955,3.071 5.955,3.685 C5.955,4.271 5.552,4.629 4.93,4.629 L3.046,4.629 L3.046,2.715 Z" id="path-21"></path>
        <path d="M0,0 L0,10 L3.046,10 L3.046,7.285 L5.4,7.285 C7.49,7.285 9,5.829 9,3.643 C9,1.458 7.49,0 5.4,0 L0,0 Z M3.046,2.715 L4.93,2.715 C5.551,2.715 5.954,3.071 5.954,3.685 C5.954,4.271 5.551,4.629 4.93,4.629 L3.046,4.629 L3.046,2.715 Z" id="path-23"></path>
        <path d="M0.243,3.389 C0.243,5.642 2.105,5.957 4.183,6.297 C5.722,6.543 6.031,6.626 6.031,6.913 C6.031,7.309 5.532,7.404 4.668,7.404 C3.346,7.404 2.214,7.077 1.201,6.257 L0,8.743 C1.268,9.563 2.685,10 4.439,10 C7.124,10 9,8.934 9,6.734 C9,4.481 7.083,4.031 5.047,3.717 C3.508,3.484 3.212,3.375 3.212,3.101 C3.212,2.8 3.441,2.541 4.453,2.541 C5.262,2.541 6.071,2.706 6.328,3.415 L8.676,2.227 C8.123,0.97 6.732,0 4.48,0 C2.012,0 0.243,1.23 0.243,3.389 Z" id="path-25"></path>
    </defs>
    <g id="Page-1" stroke="none" stroke-width="1" fill="none" fill-rule="evenodd">
        <g id="Group-50">
            <polygon id="Fill-1" fill="#22A94A" points="21 22.001 42 22.001 42 1 21 1"></polygon>
            <polygon id="Fill-2" fill="#EE4123" points="-0.0001 15.3325 -0.0001 44.0005 28.6659 44.0005 42.9999 29.6675 14.3339 29.6675 14.3339 0.9995"></polygon>
            <polygon id="Fill-3" fill="#FFFFFF" points="53.9997 0.9995 53.9997 26.0005 76.0007 26.0005 76.0007 18.1865 65.7327 18.1865 65.7327 0.9995"></polygon>
            <g id="Group-6" transform="translate(116.000000, 1.000000)">
                <mask id="mask-2" fill="white">
                    <use xlink:href="#path-1"></use>
                </mask>
                <g id="Clip-5"></g>
                <polygon id="Fill-4" fill="#FFFFFF" mask="url(#mask-2)" points="-5 30 40 30 40 -5 -5 -5"></polygon>
            </g>
            <g id="Group-9" transform="translate(152.000000, 0.000000)">
                <mask id="mask-4" fill="white">
                    <use xlink:href="#path-3"></use>
                </mask>
                <g id="Clip-8"></g>
                <polygon id="Fill-7" fill="#FFFFFF" mask="url(#mask-4)" points="-5 31 42 31 42 -5 -5 -5"></polygon>
            </g>
            <g id="Group-12" transform="translate(189.000000, 0.000000)">
                <mask id="mask-6" fill="white">
                    <use xlink:href="#path-5"></use>
                </mask>
                <g id="Clip-11"></g>
                <polygon id="Fill-10" fill="#FFFFFF" mask="url(#mask-6)" points="-5 31 34 31 34 -5 -5 -5"></polygon>
            </g>
            <g id="Group-15" transform="translate(78.000000, 1.000000)">
                <mask id="mask-8" fill="white">
                    <use xlink:href="#path-7"></use>
                </mask>
                <g id="Clip-14"></g>
                <polygon id="Fill-13" fill="#FFFFFF" mask="url(#mask-8)" points="-5 30 41 30 41 -5 -5 -5"></polygon>
            </g>
            <g id="Group-18" transform="translate(54.000000, 34.000000)">
                <mask id="mask-10" fill="white">
                    <use xlink:href="#path-9"></use>
                </mask>
                <g id="Clip-17"></g>
                <polygon id="Fill-16" fill="#FFFFFF" mask="url(#mask-10)" points="-5 15 14 15 14 -5 -5 -5"></polygon>
            </g>
            <g id="Group-21" transform="translate(65.000000, 34.000000)">
                <mask id="mask-12" fill="white">
                    <use xlink:href="#path-11"></use>
                </mask>
                <g id="Clip-20"></g>
                <polygon id="Fill-19" fill="#FFFFFF" mask="url(#mask-12)" points="-5 15 14 15 14 -5 -5 -5"></polygon>
            </g>
            <polygon id="Fill-22" fill="#FFFFFF" points="76 44 79 44 79 34.001 76 34.001"></polygon>
            <polygon id="Fill-23" fill="#FFFFFF" points="82.0002 34.001 82.0002 44 89.9992 44 89.9992 41.143 85.0872 41.143 85.0872 34.001"></polygon>
            <g id="Group-26" transform="translate(92.000000, 34.000000)">
                <mask id="mask-14" fill="white">
                    <use xlink:href="#path-13"></use>
                </mask>
                <g id="Clip-25"></g>
                <polygon id="Fill-24" fill="#FFFFFF" mask="url(#mask-14)" points="-5 15 14 15 14 -5 -5 -5"></polygon>
            </g>
            <polygon id="Fill-27" fill="#FFFFFF" points="105 44 108 44 108 34.001 105 34.001"></polygon>
            <polygon id="Fill-28" fill="#FFFFFF" points="116.045 34.001 116.045 38.729 112.551 34.001 110 34.001 110 44 112.956 44 112.956 39.285 116.449 44 119 44 119 34.001"></polygon>
            <g id="Group-31" transform="translate(121.000000, 34.000000)">
                <mask id="mask-16" fill="white">
                    <use xlink:href="#path-15"></use>
                </mask>
                <g id="Clip-30"></g>
                <polygon id="Fill-29" fill="#FFFFFF" mask="url(#mask-16)" points="-5 15 15 15 15 -5 -5 -5"></polygon>
            </g>
            <g id="Group-34" transform="translate(137.000000, 34.000000)">
                <mask id="mask-18" fill="white">
                    <use xlink:href="#path-17"></use>
                </mask>
                <g id="Clip-33"></g>
                <polygon id="Fill-32" fill="#FFFFFF" mask="url(#mask-18)" points="-5 15 14 15 14 -5 -5 -5"></polygon>
            </g>
            <g id="Group-37" transform="translate(148.000000, 34.000000)">
                <mask id="mask-20" fill="white">
                    <use xlink:href="#path-19"></use>
                </mask>
                <g id="Clip-36"></g>
                <polygon id="Fill-35" fill="#FFFFFF" mask="url(#mask-20)" points="-5 15 14 15 14 -5 -5 -5"></polygon>
            </g>
            <g id="Group-40" transform="translate(161.000000, 34.000000)">
                <mask id="mask-22" fill="white">
                    <use xlink:href="#path-21"></use>
                </mask>
                <g id="Clip-39"></g>
                <polygon id="Fill-38" fill="#FFFFFF" mask="url(#mask-22)" points="-5 15 14 15 14 -5 -5 -5"></polygon>
            </g>
            <g id="Group-43" transform="translate(172.000000, 34.000000)">
                <mask id="mask-24" fill="white">
                    <use xlink:href="#path-23"></use>
                </mask>
                <g id="Clip-42"></g>
                <polygon id="Fill-41" fill="#FFFFFF" mask="url(#mask-24)" points="-5 15 14 15 14 -5 -5 -5"></polygon>
            </g>
            <polygon id="Fill-44" fill="#FFFFFF" points="182.9997 34.001 182.9997 44 190.9997 44 190.9997 41.143 186.0877 41.143 186.0877 34.001"></polygon>
            <polygon id="Fill-45" fill="#FFFFFF" points="191.999 44 194.999 44 194.999 34.001 191.999 34.001"></polygon>
            <polygon id="Fill-46" fill="#FFFFFF" points="197.9994 34.001 197.9994 44 205.9994 44 205.9994 41.2 200.9824 41.2 200.9824 40.214 204.1024 40.214 204.1024 37.758 200.9824 37.758 200.9824 36.8 205.9324 36.8 205.9324 34.001"></polygon>
            <g id="Group-49" transform="translate(208.000000, 34.000000)">
                <mask id="mask-26" fill="white">
                    <use xlink:href="#path-25"></use>
                </mask>
                <g id="Clip-48"></g>
                <polygon id="Fill-47" fill="#FFFFFF" mask="url(#mask-26)" points="-5 15 14 15 14 -5 -5 -5"></polygon>
            </g>
        </g>
    </g>
</svg>