<?xml version="1.0" encoding="UTF-8"?>
<svg width="218px" height="45px" viewBox="0 0 218 45" version="1.1" xmlns="http://www.w3.org/2000/svg" xmlns:xlink="http://www.w3.org/1999/xlink">
    <!-- Generator: Sketch 52.5 (67469) - http://www.bohemiancoding.com/sketch -->
    <title>Group 33</title>
    <desc>Created with Sketch.</desc>
    <defs>
        <polygon id="path-1" points="0.584489143 0.191337143 29.8884229 0.191337143 29.8884229 26.4203657 0.584489143 26.4203657"></polygon>
        <polygon id="path-3" points="0 44 217.99128 44 217.99128 0.191085714 0 0.191085714"></polygon>
    </defs>
    <g id="Page-1" stroke="none" stroke-width="1" fill="none" fill-rule="evenodd">
        <g id="Group-33">
            <polygon id="Fill-1" fill="#22A94A" points="21 23.5 42 23.5 42 2.5 21 2.5"></polygon>
            <polygon id="Fill-2" fill="#EE4123" points="0 16.5008255 0 44.5 28.0012383 44.5 42 30.5004127 14 30.5004127 14 2.5"></polygon>
            <polygon id="Fill-3" fill="#22A94A" points="54 2.5 54 26.5 77 26.5 77 19.0010799 66.2664143 19.0010799 66.2664143 2.5"></polygon>
            <g id="Group-32" transform="translate(0.000000, 0.500000)">
                <path d="M138.001101,7.95054857 C138.001101,9.00026286 138.084563,10.0499771 138.251489,11.08712 L138.620221,13.3688343 L138.232803,13.5008343 L137.021969,11.6402629 C136.370461,10.63832 135.630506,9.70049143 134.808335,8.83557714 L127.402563,1.04003429 L115.290483,1.04003429 L115.290483,25.4864343 L127.402563,25.4864343 L127.402563,18.57592 C127.402563,17.5262057 127.319101,16.4764914 127.152175,15.4406057 L126.783443,13.1576343 L127.170861,13.0256343 L128.381695,14.8874629 C129.033203,15.8881486 129.774403,16.8272343 130.595329,17.6908914 L138.001101,25.4864343 L150.113181,25.4864343 L150.113181,1.04003429 L138.001101,1.04003429 L138.001101,7.95054857 Z" id="Fill-4" fill="#22A94A"></path>
                <path d="M169.795342,16.3189714 L175.852005,16.3189714 L175.852005,18.3492571 C174.610027,19.2556571 173.030462,19.8 171.308885,19.8 C167.313879,19.8 164.076267,16.8733714 164.076267,13.2628571 C164.076267,9.6536 167.313879,6.72697143 171.308885,6.72697143 C173.223547,6.72697143 174.962565,7.4008 176.256862,8.49702857 L186.201399,4.68034286 L186.201399,4.03668571 C182.509102,1.66068571 177.406656,0.191085714 171.769799,0.191085714 C159.60789,0.191085714 151.372473,5.15805714 151.372473,13.3056 C151.372473,21.4544 159.60789,26.4201143 171.769799,26.4201143 C178.368347,26.4201143 184.234416,24.4049143 187.961593,21.2809143 L187.962839,21.2809143 L187.962839,21.2796571 L187.964085,10.208 L169.795342,10.208 L169.795342,16.3189714 Z" id="Fill-6" fill="#22A94A"></path>
                <g id="Group-10" transform="translate(188.102857, 0.000000)">
                    <mask id="mask-2" fill="white">
                        <use xlink:href="#path-1"></use>
                    </mask>
                    <g id="Clip-9"></g>
                    <path d="M14.2599406,8.26973714 C14.2599406,6.11876571 21.3194034,6.47076571 25.8126949,8.44322286 L28.2542949,2.33099429 C25.6931063,1.17065143 22.2561806,0.191337143 16.6018834,0.191337143 C8.68786057,0.191337143 0.780066286,2.83385143 0.780066286,8.70848 C0.780066286,18.0729371 16.4087977,15.2858514 16.4087977,18.3419657 C16.4087977,20.4929371 9.082752,19.91968 3.02608914,17.4544229 L0.584489143,23.5653943 C3.32007771,24.9469943 8.49228343,26.4203657 14.0668549,26.4203657 C21.9821234,26.4203657 29.888672,23.7765943 29.888672,17.9032229 C29.888672,8.53750857 14.2599406,11.3258514 14.2599406,8.26973714" id="Fill-8" fill="#22A94A" mask="url(#mask-2)"></path>
                </g>
                <path d="M93.5069269,15.9795429 L94.3365726,13.6701714 C94.9656583,11.9164571 95.5062983,10.1313143 95.9547554,8.32102857 L96.3434183,8.32102857 C96.7918754,10.1313143 97.3325154,11.9164571 97.9616011,13.6701714 L98.7912469,15.9795429 L93.5069269,15.9795429 Z M90.092424,1.03965714 L77.980344,24.9945143 L77.980344,25.4860571 L90.092424,25.4860571 L91.3119783,22.0917714 L100.986195,22.0917714 L102.204504,25.4860571 L114.31783,25.4860571 L114.31783,25.0083429 L102.204504,1.03965714 L90.092424,1.03965714 Z" id="Fill-11" fill="#22A94A"></path>
                <path d="M59.650032,41.3770971 C60.2641691,41.3770971 60.5855634,41.13824 60.5855634,40.67184 C60.5855634,40.2066971 60.2641691,39.9665829 59.650032,39.9665829 L57.6519063,39.9665829 L57.6519063,41.3770971 L59.650032,41.3770971 Z M59.2862834,37.6836114 C59.8867177,37.6836114 60.1670034,37.4724114 60.1670034,36.9921829 C60.1670034,36.5132114 59.8867177,36.3020114 59.2862834,36.3020114 L57.6519063,36.3020114 L57.6519063,37.6836114 L59.2862834,37.6836114 Z M54.5787291,33.90464 L60.4597463,33.90464 C62.1364777,33.90464 63.2401806,35.1026971 63.2401806,36.5697829 C63.2401806,37.5842971 62.7095063,38.3033829 61.9969577,38.6981257 C62.9748434,39.0362971 63.6599863,39.82704 63.6599863,41.1093257 C63.6599863,42.73104 62.4155177,43.7744686 60.879552,43.7744686 L54.5787291,43.7744686 L54.5787291,33.90464 Z" id="Fill-13" fill="#EE4123"></path>
                <path d="M65.4072251,39.8689029 L65.4072251,33.9050171 L68.4804023,33.9050171 L68.4804023,39.8689029 C68.4804023,40.6583886 69.0534309,41.1235314 70.0313166,41.1235314 C70.9954994,41.1235314 71.5548251,40.6583886 71.5548251,39.8689029 L71.5548251,33.9050171 L74.6280023,33.9050171 L74.6280023,39.8689029 C74.6280023,42.4623886 72.9101623,43.9998743 70.0176137,43.9998743 C67.1250651,43.9998743 65.4072251,42.4623886 65.4072251,39.8689029" id="Fill-15" fill="#EE4123"></path>
                <mask id="mask-4" fill="white">
                    <use xlink:href="#path-3"></use>
                </mask>
                <g id="Clip-18"></g>
                <polygon id="Fill-17" fill="#EE4123" mask="url(#mask-4)" points="77.0050743 43.7737143 80.0782514 43.7737143 80.0782514 33.9038857 77.0050743 33.9038857"></polygon>
                <polygon id="Fill-19" fill="#EE4123" mask="url(#mask-4)" points="90.5569509 40.9541943 90.5569509 43.7739657 83.5722309 43.7739657 82.5930994 43.7739657 82.5930994 33.9053943 85.6675223 33.9053943 85.6675223 40.9541943"></polygon>
                <path d="M99.0104926,38.8395543 C99.0104926,37.5710971 98.1858297,36.72504 96.9849611,36.72504 L95.6570297,36.72504 L95.6570297,40.9540686 L96.9849611,40.9540686 C98.1858297,40.9540686 99.0104926,40.1080114 99.0104926,38.8395543 M102.08367,38.8395543 C102.08367,41.6454971 99.8912126,43.77384 96.9849611,43.77384 L92.8628926,43.77384 L92.5838526,43.77384 L92.5838526,33.9052686 L95.6570297,33.9052686 L96.9849611,33.9052686 C99.8912126,33.9052686 102.08367,36.0336114 102.08367,38.8395543" id="Fill-20" fill="#EE4123" mask="url(#mask-4)"></path>
                <polygon id="Fill-21" fill="#EE4123" mask="url(#mask-4)" points="104.181577 43.7737143 107.254754 43.7737143 107.254754 33.9038857 104.181577 33.9038857"></polygon>
                <polygon id="Fill-22" fill="#EE4123" mask="url(#mask-4)" points="119.130522 33.9048914 119.130522 43.77472 116.475905 43.77472 112.843402 39.1207771 112.843402 43.77472 109.770225 43.77472 109.770225 33.9048914 112.424842 33.9048914 116.057345 38.5714057 116.057345 33.9048914"></polygon>
                <path d="M131.077296,37.9936229 L131.077296,40.3909943 L131.077296,42.2226514 C130.16917,43.33648 128.66061,44.0002514 126.773353,44.0002514 C123.211856,44.0002514 121.227433,41.6456229 121.227433,38.8535086 C121.227433,36.0337371 123.266667,33.6791086 126.494313,33.6791086 C128.604553,33.6791086 130.196576,34.6936229 130.895422,36.2738514 L128.269456,37.5712229 C127.98917,37.0495086 127.528256,36.49888 126.494313,36.49888 C125.167627,36.49888 124.356667,37.38768 124.356667,38.8824229 C124.356667,40.3055086 125.097867,41.3061943 126.89917,41.3061943 C127.444793,41.3061943 127.878302,41.2219657 128.283159,41.0107657 L128.283159,40.3909943 L126.536667,40.3909943 L126.536667,37.9936229 L131.077296,37.9936229 Z" id="Fill-23" fill="#EE4123" mask="url(#mask-4)"></path>
                <path d="M137.365413,42.7023771 L138.608635,40.1365486 C139.656281,40.9826057 140.829744,41.3207771 142.198784,41.3207771 C143.093207,41.3207771 143.610178,41.22272 143.610178,40.8141486 C143.610178,40.5174629 143.288784,40.4319771 141.696761,40.1792914 C139.545413,39.8260343 137.617047,39.5016914 137.617047,37.1759771 C137.617047,34.94832 139.447001,33.6786057 142.004453,33.6786057 C144.337675,33.6786057 145.77523,34.6805486 146.348258,35.9766629 L143.91787,37.2036343 C143.652533,36.47072 142.814167,36.3022629 141.975801,36.3022629 C140.928155,36.3022629 140.690224,36.5700343 140.690224,36.8792914 C140.690224,37.1621486 140.997915,37.2740343 142.591184,37.5141486 C144.700178,37.8384914 146.683355,38.3036343 146.683355,40.6306057 C146.683355,42.8997486 144.742533,43.9997486 141.962098,43.9997486 C140.145847,43.9997486 138.678395,43.5484343 137.365413,42.7023771" id="Fill-24" fill="#EE4123" mask="url(#mask-4)"></path>
                <path d="M148.432089,39.8689029 L148.432089,33.9050171 L151.505266,33.9050171 L151.505266,39.8689029 C151.505266,40.6583886 152.078295,41.1235314 153.056181,41.1235314 C154.020363,41.1235314 154.579689,40.6583886 154.579689,39.8689029 L154.579689,33.9050171 L157.652866,33.9050171 L157.652866,39.8689029 C157.652866,42.4623886 155.935026,43.9998743 153.042478,43.9998743 C150.149929,43.9998743 148.432089,42.4623886 148.432089,39.8689029" id="Fill-25" fill="#EE4123" mask="url(#mask-4)"></path>
                <path d="M166.036897,37.5424343 C166.036897,36.9364914 165.630794,36.5832343 165.002954,36.5832343 L163.10324,36.5832343 L163.10324,38.47272 L165.002954,38.47272 C165.630794,38.47272 166.036897,38.12072 166.036897,37.5424343 M169.110074,37.4996914 C169.110074,39.6569486 167.587811,41.09512 165.477571,41.09512 L163.10324,41.09512 L163.10324,43.7740914 L160.028817,43.7740914 L160.028817,33.9042629 L163.10324,33.9042629 L165.477571,33.9042629 C167.587811,33.9042629 169.110074,35.3424343 169.110074,37.4996914" id="Fill-26" fill="#EE4123" mask="url(#mask-4)"></path>
                <path d="M177.144931,37.5424343 C177.144931,36.9364914 176.738829,36.5832343 176.110989,36.5832343 L174.211274,36.5832343 L174.211274,38.47272 L176.110989,38.47272 C176.738829,38.47272 177.144931,38.12072 177.144931,37.5424343 M180.218109,37.4996914 C180.218109,39.6569486 178.695846,41.09512 176.585606,41.09512 L174.211274,41.09512 L174.211274,43.7740914 L171.136851,43.7740914 L171.136851,33.9042629 L174.211274,33.9042629 L176.585606,33.9042629 C178.695846,33.9042629 180.218109,35.3424343 180.218109,37.4996914" id="Fill-27" fill="#EE4123" mask="url(#mask-4)"></path>
                <polygon id="Fill-28" fill="#EE4123" mask="url(#mask-4)" points="190.209111 40.9541943 190.209111 43.7739657 183.224391 43.7739657 182.245259 43.7739657 182.245259 33.9053943 185.319682 33.9053943 185.319682 40.9541943"></polygon>
                <polygon id="Fill-29" fill="#EE4123" mask="url(#mask-4)" points="192.236137 43.7737143 195.309314 43.7737143 195.309314 33.9038857 192.236137 33.9038857"></polygon>
                <polygon id="Fill-30" fill="#EE4123" mask="url(#mask-4)" points="206.068299 41.01064 206.068299 43.77384 198.803294 43.77384 197.825408 43.77384 197.825408 33.9052686 200.898585 33.9052686 205.998539 33.9052686 205.998539 36.6684686 200.898585 36.6684686 200.898585 37.6125829 204.112528 37.6125829 204.112528 40.0376114 200.898585 40.0376114 200.898585 41.01064"></polygon>
                <path d="M207.536,42.7023771 L208.779223,40.1365486 C209.826869,40.9826057 211.000331,41.3207771 212.369371,41.3207771 C213.263794,41.3207771 213.780766,41.22272 213.780766,40.8141486 C213.780766,40.5174629 213.459371,40.4319771 211.867349,40.1792914 C209.716,39.8260343 207.787634,39.5016914 207.787634,37.1759771 C207.787634,34.94832 209.617589,33.6786057 212.17504,33.6786057 C214.508263,33.6786057 215.945817,34.6805486 216.518846,35.9766629 L214.088457,37.2036343 C213.82312,36.47072 212.984754,36.3022629 212.146389,36.3022629 C211.098743,36.3022629 210.860811,36.5700343 210.860811,36.8792914 C210.860811,37.1621486 211.168503,37.2740343 212.761771,37.5141486 C214.870766,37.8384914 216.853943,38.3036343 216.853943,40.6306057 C216.853943,42.8997486 214.91312,43.9997486 212.132686,43.9997486 C210.316434,43.9997486 208.848983,43.5484343 207.536,42.7023771" id="Fill-31" fill="#EE4123" mask="url(#mask-4)"></path>
            </g>
        </g>
    </g>
</svg>