<?xml version="1.0" encoding="UTF-8"?>
<svg width="100px" height="40px" viewBox="0 0 100 40" version="1.1" xmlns="http://www.w3.org/2000/svg" xmlns:xlink="http://www.w3.org/1999/xlink">
    <!-- Generator: Sketch 52.5 (67469) - http://www.bohemiancoding.com/sketch -->
    <title>Group 7</title>
    <desc>Created with Sketch.</desc>
    <defs>
        <polygon id="path-1" points="8.33333333e-05 0.0304166667 56.1463333 0.0304166667 56.1463333 30.8903333 8.33333333e-05 30.8903333"></polygon>
        <polygon id="path-3" points="0.109083333 0.0304166667 41.08075 0.0304166667 41.08075 39.5832917 0.109083333 39.5832917"></polygon>
    </defs>
    <g id="Page-1" stroke="none" stroke-width="1" fill="none" fill-rule="evenodd">
        <g id="Home-slide-1" transform="translate(-1310.000000, -1510.000000)">
            <g id="Group" transform="translate(0.000000, 1480.000000)">
                <g id="Group-7" transform="translate(1310.000000, 30.000000)">
                    <g id="Group-3" transform="translate(0.000000, 0.386375)">
                        <mask id="mask-2" fill="white">
                            <use xlink:href="#path-1"></use>
                        </mask>
                        <g id="Clip-2"></g>
                        <path d="M56.1463333,28.4215833 C56.1463333,30.0678333 55.198,30.8903333 53.3009167,30.8903333 C51.443,30.8903333 50.5138333,30.0686667 50.5138333,28.4261667 L50.5138333,9.06533333 C50.5138333,6.132 47.5300833,4.66491667 41.56425,4.66491667 C34.4671667,4.66491667 30.9184167,6.38658333 30.9184167,9.82783333 L30.9184167,28.4261667 C30.9184167,30.0686667 30.00925,30.8903333 28.19175,30.8903333 C26.2546667,30.8903333 25.28675,30.0686667 25.28675,28.4261667 L25.28675,9.82783333 C25.28675,6.38658333 21.72675,4.66491667 14.6088333,4.66491667 C8.5455,4.66491667 5.51508333,6.132 5.51508333,9.06533333 L5.51508333,28.4261667 C5.51508333,30.0686667 4.57633333,30.8903333 2.69883333,30.8903333 C0.89925,30.8903333 8.33333333e-05,30.0678333 8.33333333e-05,28.4215833 L8.33333333e-05,9.67033333 C8.33333333e-05,3.24408333 4.87508333,0.0303333333 14.6250833,0.0303333333 C21.9075833,0.0303333333 26.4500833,1.69325 28.2513333,5.017 C30.2475833,1.69325 34.6909167,0.0303333333 41.58175,0.0303333333 C51.29175,0.0303333333 56.1463333,3.24408333 56.1463333,9.67033333 L56.1463333,28.4215833 Z" id="Fill-1" fill="#54AF32" mask="url(#mask-2)"></path>
                    </g>
                    <g id="Group-6" transform="translate(58.750000, 0.386375)">
                        <mask id="mask-4" fill="white">
                            <use xlink:href="#path-3"></use>
                        </mask>
                        <g id="Clip-5"></g>
                        <path d="M35.4061667,26.1620417 L35.4061667,9.785375 C35.4061667,6.39620833 32.4499167,4.700375 26.5378333,4.700375 L13.9445,4.700375 C8.42491667,4.700375 5.66658333,6.237875 5.66658333,9.31204167 L5.66658333,21.4920417 C5.66658333,24.6057917 8.86033333,26.1620417 15.2445,26.1620417 L35.4061667,26.1620417 Z M41.08075,30.4049583 C41.08075,36.5232917 36.0165833,39.5832917 25.8878333,39.5832917 L21.2161667,39.5832917 C19.5990833,39.5832917 18.7928333,38.8337083 18.7928333,37.3362083 C18.7928333,35.799125 19.5990833,35.030375 21.2161667,35.030375 L26.597,35.030375 C32.587,35.030375 35.5828333,33.7495417 35.5828333,31.187875 L35.5828333,30.832875 L16.36825,30.832875 C5.52825,30.832875 0.109083333,27.7332917 0.109083333,21.5332917 L0.109083333,9.38870833 C0.109083333,3.14995833 5.04991667,0.030375 14.9278333,0.030375 L24.9049167,0.030375 C35.6899167,0.030375 41.08075,3.167875 41.08075,9.44454167 L41.08075,30.4049583 Z" id="Fill-4" fill="#54AF32" mask="url(#mask-4)"></path>
                    </g>
                </g>
            </g>
        </g>
    </g>
</svg>