<?xml version="1.0" encoding="UTF-8"?>
<svg width="300px" height="89px" viewBox="0 0 300 89" version="1.1" xmlns="http://www.w3.org/2000/svg" xmlns:xlink="http://www.w3.org/1999/xlink">
    <!-- Generator: Sketch 52.5 (67469) - http://www.bohemiancoding.com/sketch -->
    <title>Group 66</title>
    <desc>Created with Sketch.</desc>
    <defs>
        <polygon id="path-1" points="0.0316182573 0.38004662 60.0647303 0.38004662 60.0647303 45.9806682 0.0316182573 45.9806682"></polygon>
    </defs>
    <g id="Page-1" stroke="none" stroke-width="1" fill="none" fill-rule="evenodd">
        <g id="Home-slide-1" transform="translate(-1100.000000, -603.000000)">
            <g id="Group-66" transform="translate(1250.000000, 647.555556) rotate(-360.000000) translate(-1250.000000, -647.555556) translate(1100.000000, 603.111111)">
                <path d="M6.768361,67.1568609 C6.78641079,68.7475369 6.08682573,70.2281896 3.94948133,70.2281896 C0.964419087,70.2281896 0.854253112,67.5932246 0.854253112,65.6600466 C0.854253112,63.8039472 1.09325726,61.1851437 3.91275934,61.1851437 C5.73641079,61.1851437 6.69429461,62.5097747 6.67624481,63.9444289 L5.62624481,63.9444289 C5.58890041,62.8995183 4.99948133,61.9484693 3.83869295,61.9801709 C1.83018672,62.0261694 1.9223029,64.4752758 1.9223029,65.8154468 C1.9223029,67.0157576 1.88558091,69.4331624 3.96753112,69.4331624 C5.46006224,69.4331624 5.58890041,68.1389899 5.6996888,67.1568609 L6.768361,67.1568609 Z" id="Fill-1" fill="#FFFFFF"></path>
                <path d="M8.40890041,70.0098834 L8.40890041,58.315711 L9.47757261,58.315711 L9.47757261,62.1671484 L9.51429461,62.1671484 C9.97487552,61.5275214 10.8225934,61.2160995 11.6889834,61.1850194 C12.4806846,61.1377778 13.3651245,61.3404196 13.8257054,61.932805 C14.2682365,62.4319503 14.2682365,63.180979 14.2682365,63.7733644 L14.2682365,70.0098834 L13.1995643,70.0098834 L13.1995643,63.9443046 C13.1995643,62.9466356 13.0887759,61.9800466 11.6335892,61.9800466 C10.638361,61.9800466 9.90143154,62.5251904 9.47757261,63.2586791 L9.47757261,70.0098834 L8.40890041,70.0098834 Z" id="Fill-3" fill="#FFFFFF"></path>
                <path d="M20.3303527,65.3636674 C19.6301452,65.6906294 18.911888,65.9088112 18.2116805,66.1586946 C17.1249585,66.5645998 16.885332,66.9226418 16.885332,67.9364724 C16.885332,68.7781197 17.1984025,69.4332867 18.3037967,69.4332867 C19.0040041,69.4332867 19.5013071,69.1840249 19.8143776,68.7942813 C20.2569087,68.2485159 20.3303527,67.5150272 20.3303527,66.8766434 L20.3303527,65.3636674 Z M16.0930083,63.5703497 C16.0376141,62.0579953 17.0322199,61.1846465 18.8010996,61.1846465 C19.6488174,61.1846465 20.4224689,61.3400466 20.901722,61.8391919 C21.3623029,62.3383372 21.3990249,62.9151826 21.3990249,63.523108 L21.3990249,68.8091997 C21.3990249,69.323885 21.5098133,69.4015851 22.1359544,69.3866667 L22.1359544,70.0412121 C21.7674896,70.1667754 21.3436307,70.1506138 20.9571162,70.0884538 C20.4778631,69.932432 20.4965353,69.7136286 20.3857469,69.308345 L20.3676971,69.308345 C19.8330498,69.932432 19.0040041,70.2283139 18.1195643,70.2283139 C16.2585685,70.2283139 15.8166598,69.1529448 15.8166598,67.7959907 C15.8166598,66.7983217 16.1477801,66.0499145 17.2170747,65.5818493 C18.1195643,65.2225641 19.0961203,64.9739239 19.99861,64.6146387 C20.1647925,64.5524786 20.2569087,64.3815385 20.2749585,64.2721368 C20.3490249,63.9128516 20.3123029,63.1961461 20.2382365,62.8374825 C20.0907261,62.3221756 19.7222614,61.9802953 18.7830498,61.9802953 C17.2718465,61.9802953 17.2905187,62.8064025 17.1249585,63.5703497 L16.0930083,63.5703497 Z" id="Fill-5" fill="#FFFFFF"></path>
                <path d="M24.6975311,62.4007459 L24.7348755,62.4007459 C25.2689004,61.496317 25.9691079,61.1693551 27.1485685,61.1848951 L27.1485685,62.1353225 C25.4898548,62.1042424 24.7529253,63.0092929 24.7529253,64.3656255 L24.7529253,70.0097591 L23.6842531,70.0097591 L23.6842531,61.4030769 L24.6975311,61.4030769 L24.6975311,62.4007459 Z" id="Fill-7" fill="#FFFFFF"></path>
                <path d="M31.1470954,70.0882051 C30.7786307,70.1348252 30.1338174,70.2286869 29.7653527,70.1348252 C28.8255187,69.8544833 28.6593361,69.4647397 28.6593361,68.6380109 L28.6593361,62.1982284 L27.7381743,62.1982284 L27.7381743,61.4025796 L28.6593361,61.4025796 L28.6593361,58.8770163 L29.7286307,58.8770163 L29.7286307,61.4025796 L31.1470954,61.4025796 L31.1470954,62.1982284 L29.7286307,62.1982284 L29.7286307,68.5447708 C29.7286307,68.8406527 29.7653527,69.2770163 30.2626556,69.355338 C30.5390041,69.4491997 30.8707469,69.401958 31.1470954,69.339798 L31.1470954,70.0882051 Z" id="Fill-9" fill="#FFFFFF"></path>
                <path d="M36.8590456,64.8647086 C36.8590456,63.7731779 36.7295851,61.9798601 34.9980498,61.9798601 C33.3399585,61.9798601 33.1557261,63.850878 33.1557261,64.8647086 L36.8590456,64.8647086 Z M37.9277178,65.6597358 L33.1557261,65.6597358 C33.1557261,66.7674281 32.9714938,69.4334732 35.0714938,69.4334732 C36.5826971,69.4334732 36.7669295,68.2325408 36.8590456,67.2037918 L37.8909959,67.2037918 C37.8909959,68.7783061 37.1353942,70.2285004 35.053444,70.2285004 C32.2158921,70.2285004 32.0870539,67.5152137 32.0870539,65.7374359 C32.0870539,64.0068998 32.2158921,61.1848329 35.016722,61.1848329 C37.3750207,61.1848329 37.9277178,63.1490909 37.9277178,64.7863869 L37.9277178,65.6597358 Z" id="Fill-11" fill="#FFFFFF"></path>
                <path d="M40.8023029,62.4007459 L40.8396473,62.4007459 C41.3736722,61.496317 42.0738797,61.1693551 43.2533402,61.1848951 L43.2533402,62.1353225 C41.5946266,62.1042424 40.8576971,63.0092929 40.8576971,64.3656255 L40.8576971,70.0097591 L39.7890249,70.0097591 L39.7890249,61.4030769 L40.8023029,61.4030769 L40.8023029,62.4007459 Z" id="Fill-13" fill="#FFFFFF"></path>
                <path d="M48.9652905,64.8647086 C48.9652905,63.7731779 48.8358299,61.9798601 47.1042946,61.9798601 C45.4462033,61.9798601 45.261971,63.850878 45.261971,64.8647086 L48.9652905,64.8647086 Z M50.0339627,65.6597358 L45.261971,65.6597358 C45.261971,66.7674281 45.0777386,69.4334732 47.1777386,69.4334732 C48.6889419,69.4334732 48.8731743,68.2325408 48.9652905,67.2037918 L49.9972407,67.2037918 C49.9972407,68.7783061 49.241639,70.2285004 47.1596888,70.2285004 C44.3221369,70.2285004 44.1932988,67.5152137 44.1932988,65.7374359 C44.1932988,64.0068998 44.3221369,61.1848329 47.1229668,61.1848329 C49.4812656,61.1848329 50.0339627,63.1490909 50.0339627,64.7863869 L50.0339627,65.6597358 Z" id="Fill-15" fill="#FFFFFF"></path>
                <path d="M52.5037344,65.8468998 C52.5037344,67.0633722 52.5958506,69.4335354 54.6043568,69.4335354 C56.7784232,69.4335354 56.5941909,66.5169852 56.5941909,65.3322145 C56.5941909,64.1629837 56.5014523,61.9799223 54.5489627,61.9799223 C52.5217842,61.9799223 52.5037344,64.677669 52.5037344,65.8468998 Z M56.5941909,58.3155866 L57.6628631,58.3155866 L57.6628631,70.0097591 L56.5941909,70.0097591 L56.5941909,69.1998135 L56.5568465,69.1998135 C56.13361,69.9003574 55.3412863,70.2285625 54.3647303,70.2285625 C51.6192946,70.2285625 51.4350622,67.4058741 51.4350622,65.6759596 C51.4350622,63.9441803 51.6746888,61.1848951 54.4014523,61.1848951 C55.2124481,61.1848951 56.0228216,61.527397 56.5568465,62.1042424 L56.5941909,62.1042424 L56.5941909,58.3155866 Z" id="Fill-17" fill="#FFFFFF"></path>
                <path d="M67.7046473,65.3636674 C67.0044398,65.6906294 66.2861826,65.9088112 65.5859751,66.1586946 C64.4992531,66.5645998 64.2590041,66.9226418 64.2590041,67.9364724 C64.2590041,68.7781197 64.5726971,69.4332867 65.6780913,69.4332867 C66.3782988,69.4332867 66.8756017,69.1840249 67.1886722,68.7942813 C67.6312033,68.2485159 67.7046473,67.5150272 67.7046473,66.8766434 L67.7046473,65.3636674 Z M63.4673029,63.5703497 C63.4119087,62.0579953 64.4071369,61.1846465 66.1753942,61.1846465 C67.023112,61.1846465 67.7967635,61.3400466 68.2760166,61.8391919 C68.7365975,62.3383372 68.7733195,62.9151826 68.7733195,63.523108 L68.7733195,68.8091997 C68.7733195,69.323885 68.8841079,69.4015851 69.510249,69.3866667 L69.510249,70.0412121 C69.1417842,70.1667754 68.7179253,70.1506138 68.3314108,70.0884538 C67.8521577,69.932432 67.8708299,69.7136286 67.7600415,69.308345 L67.7419917,69.308345 C67.2073444,69.932432 66.3782988,70.2283139 65.4938589,70.2283139 C63.6328631,70.2283139 63.1909544,69.1529448 63.1909544,67.7959907 C63.1909544,66.7983217 63.5226971,66.0499145 64.5913693,65.5818493 C65.4938589,65.2225641 66.4704149,64.9739239 67.3729046,64.6146387 C67.5390871,64.5524786 67.6312033,64.3815385 67.6498755,64.2721368 C67.7233195,63.9128516 67.6865975,63.1961461 67.6125311,62.8374825 C67.4650207,62.3221756 67.096556,61.9802953 66.1573444,61.9802953 C64.6461411,61.9802953 64.6648133,62.8064025 64.4992531,63.5703497 L63.4673029,63.5703497 Z" id="Fill-19" fill="#FFFFFF"></path>
                <path d="M76.3837344,67.1568609 C76.4017842,68.7475369 75.7021992,70.2281896 73.5648548,70.2281896 C70.5797925,70.2281896 70.4696266,67.5932246 70.4696266,65.6600466 C70.4696266,63.8039472 70.7086307,61.1851437 73.5281328,61.1851437 C75.3517842,61.1851437 76.309668,62.5097747 76.2916183,63.9444289 L75.2416183,63.9444289 C75.2042739,62.8995183 74.6148548,61.9484693 73.4540664,61.9801709 C71.4455602,62.0261694 71.5376763,64.4752758 71.5376763,65.8154468 C71.5376763,67.0157576 71.5009544,69.4331624 73.5829046,69.4331624 C75.0754357,69.4331624 75.2042739,68.1389899 75.3150622,67.1568609 L76.3837344,67.1568609 Z" id="Fill-21" fill="#FFFFFF"></path>
                <path d="M83.4596266,67.1568609 C83.4776763,68.7475369 82.7780913,70.2281896 80.6407469,70.2281896 C77.6556846,70.2281896 77.5455187,67.5932246 77.5455187,65.6600466 C77.5455187,63.8039472 77.7845228,61.1851437 80.6040249,61.1851437 C82.4276763,61.1851437 83.3855602,62.5097747 83.3675104,63.9444289 L82.3175104,63.9444289 C82.280166,62.8995183 81.6907469,61.9484693 80.5299585,61.9801709 C78.5214523,62.0261694 78.6135685,64.4752758 78.6135685,65.8154468 C78.6135685,67.0157576 78.5768465,69.4331624 80.6587967,69.4331624 C82.1513278,69.4331624 82.280166,68.1389899 82.3909544,67.1568609 L83.4596266,67.1568609 Z" id="Fill-23" fill="#FFFFFF"></path>
                <path d="M90.1666183,65.690878 C90.1666183,64.3500855 90.1298963,61.9799223 87.9371577,61.9799223 C86.02139,61.9799223 85.9106017,64.3339239 85.9106017,65.5193162 C85.9106017,66.7979487 85.7998133,69.4335354 87.9925519,69.4335354 C90.1485685,69.4335354 90.1666183,66.9850505 90.1666183,65.690878 M84.8419295,65.5037762 C84.8419295,63.5705983 85.2657884,61.1848951 88.0659959,61.1848951 C90.9222199,61.1848951 91.2352905,63.7881585 91.2352905,65.6759596 C91.2352905,67.6240559 90.9408921,70.2285625 88.0112241,70.2285625 C84.9153734,70.2285625 84.8419295,67.4997358 84.8419295,65.5037762" id="Fill-25" fill="#FFFFFF"></path>
                <path d="M97.943029,61.4028283 L99.0117012,61.4028283 L99.0117012,70.0101321 L97.979751,70.0101321 L97.979751,69.2144833 L97.943029,69.2144833 C97.2982158,69.947972 96.4504979,70.2283139 95.3818257,70.2283139 C93.5214523,70.2283139 93.1343154,69.1057032 93.1343154,67.7649106 L93.1343154,61.4028283 L94.2029876,61.4028283 L94.2029876,67.9203108 C94.2029876,69.0118415 94.7002905,69.5109868 95.989917,69.4332867 C96.8376349,69.4015851 97.6112863,68.6848796 97.943029,67.9520124 L97.943029,61.4028283 Z" id="Fill-27" fill="#FFFFFF"></path>
                <path d="M102.384087,70.0098834 L101.315415,70.0098834 L101.315415,61.4025796 L102.384087,61.4025796 L102.384087,62.2448485 L102.420809,62.2448485 C102.936784,61.6052214 103.729108,61.1850194 104.723714,61.1850194 C106.032012,61.1850194 107.100685,61.932805 107.100685,63.180979 L107.100685,70.0098834 L106.032012,70.0098834 L106.032012,63.7572028 C106.032012,62.7750738 105.939896,61.9800466 104.539481,61.9800466 C103.471432,61.9800466 102.384087,62.6967521 102.384087,63.6639627 L102.384087,70.0098834 Z" id="Fill-29" fill="#FFFFFF"></path>
                <path d="M111.910394,70.0882051 C111.541929,70.1348252 110.897116,70.2286869 110.528651,70.1348252 C109.588817,69.8544833 109.422635,69.4647397 109.422635,68.6380109 L109.422635,62.1982284 L108.501473,62.1982284 L108.501473,61.4025796 L109.422635,61.4025796 L109.422635,58.8770163 L110.491929,58.8770163 L110.491929,61.4025796 L111.910394,61.4025796 L111.910394,62.1982284 L110.491929,62.1982284 L110.491929,68.5447708 C110.491929,68.8406527 110.528651,69.2770163 111.025954,69.355338 C111.302303,69.4491997 111.634046,69.401958 111.910394,69.339798 L111.910394,70.0882051 Z" id="Fill-31" fill="#FFFFFF"></path>
                <path d="M117.198174,65.3636674 C116.497967,65.6906294 115.77971,65.9088112 115.079502,66.1586946 C113.99278,66.5645998 113.752531,66.9226418 113.752531,67.9364724 C113.752531,68.7781197 114.066224,69.4332867 115.171618,69.4332867 C115.871826,69.4332867 116.369129,69.1840249 116.682199,68.7942813 C117.12473,68.2485159 117.198174,67.5150272 117.198174,66.8766434 L117.198174,65.3636674 Z M112.96083,63.5703497 C112.905436,62.0579953 113.900664,61.1846465 115.668921,61.1846465 C116.516639,61.1846465 117.29029,61.3400466 117.769544,61.8391919 C118.230124,62.3383372 118.266846,62.9151826 118.266846,63.523108 L118.266846,68.8091997 C118.266846,69.323885 118.377635,69.4015851 119.003776,69.3866667 L119.003776,70.0412121 C118.635311,70.1667754 118.211452,70.1506138 117.824938,70.0884538 C117.345685,69.932432 117.364357,69.7136286 117.253568,69.308345 L117.235519,69.308345 C116.700871,69.932432 115.871826,70.2283139 114.987386,70.2283139 C113.12639,70.2283139 112.684481,69.1529448 112.684481,67.7959907 C112.684481,66.7983217 113.016224,66.0499145 114.084896,65.5818493 C114.987386,65.2225641 115.963942,64.9739239 116.866432,64.6146387 C117.032614,64.5524786 117.12473,64.3815385 117.143402,64.2721368 C117.216846,63.9128516 117.180124,63.1961461 117.106058,62.8374825 C116.958548,62.3221756 116.590083,61.9802953 115.650871,61.9802953 C114.139668,61.9802953 114.15834,62.8064025 113.99278,63.5703497 L112.96083,63.5703497 Z" id="Fill-33" fill="#FFFFFF"></path>
                <path d="M121.547365,70.0098834 L120.478693,70.0098834 L120.478693,61.4025796 L121.547365,61.4025796 L121.547365,62.2448485 L121.584087,62.2448485 C122.100062,61.6052214 122.892386,61.1850194 123.886992,61.1850194 C125.19529,61.1850194 126.263963,61.932805 126.263963,63.180979 L126.263963,70.0098834 L125.19529,70.0098834 L125.19529,63.7572028 C125.19529,62.7750738 125.103174,61.9800466 123.702759,61.9800466 C122.63471,61.9800466 121.547365,62.6967521 121.547365,63.6639627 L121.547365,70.0098834 Z" id="Fill-35" fill="#FFFFFF"></path>
                <path d="M131.073734,70.0882051 C130.70527,70.1348252 130.060456,70.2286869 129.691992,70.1348252 C128.752158,69.8544833 128.585975,69.4647397 128.585975,68.6380109 L128.585975,62.1982284 L127.664813,62.1982284 L127.664813,61.4025796 L128.585975,61.4025796 L128.585975,58.8770163 L129.65527,58.8770163 L129.65527,61.4025796 L131.073734,61.4025796 L131.073734,62.1982284 L129.65527,62.1982284 L129.65527,68.5447708 C129.65527,68.8406527 129.691992,69.2770163 130.189295,69.355338 C130.465643,69.4491997 130.797386,69.401958 131.073734,69.339798 L131.073734,70.0882051 Z" id="Fill-37" fill="#FFFFFF"></path>
                <path d="M134.795726,61.1848951 C136.546556,61.1848951 137.558589,62.1197824 137.558589,63.6016783 L136.508589,63.6016783 C136.471867,62.6972494 135.882448,61.9799223 134.758382,61.9799223 C133.745726,61.9799223 133.247801,62.5101476 133.247801,63.3517949 C133.247801,64.038042 133.782448,64.4277855 134.482656,64.662129 C136.287635,65.3639161 137.816888,66.0178399 137.816888,67.8583994 C137.816888,69.3862937 136.693444,70.2285625 134.924564,70.2285625 C132.93473,70.2285625 131.958174,69.307972 131.958174,67.6719192 L133.044896,67.6719192 C133.137012,68.7317483 133.690332,69.4335354 134.998008,69.4335354 C136.122075,69.4335354 136.748216,68.7155866 136.748216,67.8111577 C136.748216,65.5348563 132.326639,65.9873815 132.179129,63.6638384 C132.013568,62.1042424 132.93473,61.1848951 134.795726,61.1848951" id="Fill-39" fill="#FFFFFF"></path>
                <path d="M83.8702282,46.8676923 C83.8702282,49.3236364 82.4530083,50.550676 79.6198133,50.550676 C76.8438797,50.550676 75.4565353,49.3248796 75.4565353,46.8745299 L75.4565353,17.9912354 C75.4565353,13.6151671 70.9994813,11.4265113 62.0878631,11.4265113 C51.4864108,11.4265113 46.1853734,13.994965 46.1853734,19.1287646 L46.1853734,46.8745299 C46.1853734,49.3248796 44.8272822,50.550676 42.111722,50.550676 C39.2181535,50.550676 37.7723029,49.3248796 37.7723029,46.8745299 L37.7723029,19.1287646 C37.7723029,13.994965 32.455083,11.4265113 21.821888,11.4265113 C12.765249,11.4265113 8.23786307,13.6151671 8.23786307,17.9912354 L8.23786307,46.8745299 C8.23786307,49.3248796 6.83558091,50.550676 4.031639,50.550676 C1.34346473,50.550676 0.000311203319,49.3236364 0.000311203319,46.8676923 L0.000311203319,18.8937995 C0.000311203319,9.30685315 7.28246888,4.51244755 21.8467842,4.51244755 C32.7245851,4.51244755 39.5100622,6.99325563 42.2007261,11.9517638 C45.1832988,6.99325563 51.8206432,4.51244755 62.1140041,4.51244755 C76.6179461,4.51244755 83.8702282,9.30685315 83.8702282,18.8937995 L83.8702282,46.8676923 Z" id="Fill-41" fill="#44BF00"></path>
                <path d="M145.521909,34.4459984 C145.521909,40.2815851 142.192033,43.1981352 135.531037,43.1981352 L108.100332,43.1981352 C101.205311,43.1981352 97.7590456,41.2724165 97.7590456,37.4216006 L97.7590456,31.2074592 C97.7590456,27.1241647 101.001784,25.0809635 107.486639,25.0809635 L145.521909,25.0809635 L145.521909,34.4459984 Z M197.154896,43.1981352 L167.182282,43.1981352 C158.710083,43.1981352 154.473983,40.8938617 154.473983,36.2840715 L154.473983,17.7280497 C154.473983,13.5272727 158.154896,11.4268842 165.516722,11.4268842 L197.154896,11.4268842 C199.724813,11.4268842 201.010705,10.2445998 201.010705,7.88065268 C201.010705,5.63480963 199.724813,4.51219891 197.154896,4.51219891 L166.655726,4.51219891 C158.811535,4.51219891 153.23166,6.0009324 149.908008,8.97094017 C146.73,6.0003108 141.443278,4.51219891 134.040996,4.51219891 L125.27751,4.51219891 C123.290788,4.51219891 122.297427,5.63480963 122.297427,7.88065268 C122.297427,10.2445998 123.290788,11.4268842 125.27751,11.4268842 L135.356141,11.4268842 C141.547842,11.4268842 144.908216,13.6733489 145.434149,18.1662782 L109.327095,18.1662782 C96.0063485,18.1662782 89.3453527,22.5721834 89.3453527,31.382129 L89.3453527,37.3339549 C89.3453527,45.8542347 96.1513693,50.1128205 109.76527,50.1128205 L134.040996,50.1128205 C141.628133,50.1128205 146.992656,48.589899 150.141411,45.5496503 C153.77751,48.589899 159.950539,50.1128205 168.671079,50.1128205 L197.154896,50.1128205 C199.432905,50.1128205 200.571909,49.0337218 200.571909,46.8742813 C200.571909,44.4239316 199.432905,43.1981352 197.154896,43.1981352 Z" id="Fill-43" fill="#44BF00"></path>
                <path d="M228.016307,11.4267599 C220.12917,11.4267599 216.185602,13.7614918 216.185602,18.4290909 L216.185602,46.874157 C216.185602,49.3251282 214.768382,50.550303 211.934564,50.550303 C209.159253,50.550303 207.772531,49.323885 207.772531,46.8679409 L207.772531,18.3669308 C207.772531,9.13056721 214.81195,4.51207459 228.892656,4.51207459 L232.661328,4.51207459 C234.705934,4.51207459 235.728548,5.66514375 235.728548,7.96941725 C235.728548,10.274934 234.88083,11.4267599 233.187884,11.4267599 L228.016307,11.4267599 Z" id="Fill-45" fill="#44BF00"></path>
                <g id="Group-49" transform="translate(239.626556, 4.132401)">
                    <mask id="mask-2" fill="white">
                        <use xlink:href="#path-1"></use>
                    </mask>
                    <g id="Clip-48"></g>
                    <path d="M51.6515353,13.8588345 C51.6515353,9.48276612 47.7359751,7.29411033 39.9073444,7.29411033 L20.9774689,7.29411033 C12.5052697,7.29411033 8.27041494,9.71648796 8.27041494,14.5587568 L8.27041494,32.1519192 C8.27041494,36.7617094 12.5052697,39.0659829 20.9774689,39.0659829 L39.9073444,39.0659829 C47.7359751,39.0659829 51.6515353,36.7617094 51.6515353,32.1519192 L51.6515353,13.8588345 Z M60.0652282,32.125812 C60.0652282,41.3621756 52.9075519,45.9806682 38.593444,45.9806682 L21.9415768,45.9806682 C7.33556017,45.9806682 0.0316182573,41.3621756 0.0316182573,32.125812 L0.0316182573,14.4984615 C0.0316182573,5.08742813 7.4226971,0.38004662 22.2048548,0.38004662 L38.593444,0.38004662 C52.9075519,0.38004662 60.0652282,5.0569697 60.0652282,14.4114375 L60.0652282,32.125812 Z" id="Fill-47" fill="#44BF00" mask="url(#mask-2)"></path>
                </g>
                <path d="M171.66056,78.2273193 L171.66056,66.1744833 C171.66056,63.6806216 169.482137,62.4324476 165.12529,62.4324476 L155.845207,62.4324476 C151.77778,62.4324476 149.745,63.5637607 149.745,65.8263869 L149.745,74.7904895 C149.745,77.0817094 152.09832,78.2273193 156.803091,78.2273193 L171.66056,78.2273193 Z M175.84251,81.3496193 C175.84251,85.8531158 172.11056,88.1051748 164.646037,88.1051748 L161.203506,88.1051748 C160.01222,88.1051748 159.417822,87.5531935 159.417822,86.4510956 C159.417822,85.3197824 160.01222,84.7541259 161.203506,84.7541259 L165.168859,84.7541259 C169.582967,84.7541259 171.790643,83.8111577 171.790643,81.925843 L171.790643,81.6647708 L157.630892,81.6647708 C149.642925,81.6647708 145.649564,79.3834965 145.649564,74.8209479 L145.649564,65.8829526 C145.649564,61.2911888 149.290643,58.9956177 156.569689,58.9956177 L163.921556,58.9956177 C171.869689,58.9956177 175.84251,61.3042424 175.84251,65.9239782 L175.84251,81.3496193 Z" id="Fill-50" fill="#FFFFFF"></path>
                <path d="M191.440207,62.4323232 C187.518423,62.4323232 185.557842,63.5928516 185.557842,65.9139083 L185.557842,80.0553225 C185.557842,81.2736597 184.8539,81.8822067 183.444772,81.8822067 C182.064896,81.8822067 181.375892,81.2730381 181.375892,80.0515929 L181.375892,65.8828283 C181.375892,61.2910645 184.87444,58.9954934 191.87527,58.9954934 L193.748714,58.9954934 C194.765104,58.9954934 195.272988,59.5686092 195.272988,60.7135975 C195.272988,61.8598291 194.852241,62.4323232 194.010124,62.4323232 L191.440207,62.4323232 Z" id="Fill-52" fill="#FFFFFF"></path>
                <path d="M223.680124,65.6957265 C223.680124,63.5201243 221.733859,62.4323232 217.842573,62.4323232 L208.431162,62.4323232 C204.218714,62.4323232 202.113734,63.6363636 202.113734,66.0444444 L202.113734,74.7903652 C202.113734,77.0815851 204.218714,78.227195 208.431162,78.227195 L217.842573,78.227195 C221.733859,78.227195 223.680124,77.0815851 223.680124,74.7903652 L223.680124,65.6957265 Z M227.86332,74.77669 C227.86332,79.3690754 224.305021,81.6646465 217.188423,81.6646465 L208.910415,81.6646465 C201.649419,81.6646465 198.018299,79.3690754 198.018299,74.77669 L198.018299,66.0146076 C198.018299,61.3351981 201.692988,58.9954934 209.04112,58.9954934 L217.188423,58.9954934 C224.305021,58.9954934 227.86332,61.3202797 227.86332,65.970474 L227.86332,74.77669 Z" id="Fill-54" fill="#FFFFFF"></path>
                <path d="M263.458257,75.0943901 C263.458257,79.4748096 259.624232,81.6647086 251.956183,81.6647086 L244.810332,81.6647086 C237.083776,81.6647086 233.221743,79.4748096 233.221743,75.0943901 L233.221743,60.4308314 C233.221743,59.2709246 233.897676,58.6903497 235.248299,58.6903497 C236.626929,58.6903497 237.317178,59.2709246 237.317178,60.4308314 L237.317178,75.0943901 C237.317178,77.1829681 239.591452,78.2272572 244.144357,78.2272572 L252.622158,78.2272572 C257.05805,78.2272572 259.275062,77.2121834 259.275062,75.1820357 L259.275062,60.4308314 C259.275062,59.2995183 259.987718,58.7344833 261.409917,58.7344833 C262.774855,58.7344833 263.458257,59.2995183 263.458257,60.4308314 L263.458257,75.0943901 Z" id="Fill-56" fill="#FFFFFF"></path>
                <path d="M295.001639,65.5651904 C295.001639,63.4772339 292.8089,62.4323232 288.422801,62.4323232 L279.359938,62.4323232 C275.177988,62.4323232 273.086079,63.5201243 273.086079,65.6957265 L273.086079,78.227195 L289.599149,78.227195 C293.199772,78.227195 295.001639,77.1257187 295.001639,74.9209013 L295.001639,65.5651904 Z M299.184834,74.8208236 C299.184834,79.3833722 295.756618,81.6646465 288.901432,81.6646465 L273.086079,81.6646465 L273.086079,86.7561772 C273.086079,88.0323232 272.389606,88.6700855 270.995415,88.6700855 C269.659108,88.6700855 268.991888,88.0317016 268.991888,86.7530692 L268.991888,65.5310023 C268.991888,61.1742036 272.607448,58.9954934 279.840436,58.9954934 L287.769896,58.9954934 C295.378195,58.9954934 299.184834,61.1462315 299.184834,65.4477078 L299.184834,74.8208236 Z" id="Fill-58" fill="#FFFFFF"></path>
                <path d="M88.2598755,3.82371406 L88.2598755,10.1969852 C88.2598755,10.6377001 88.0183817,10.8577467 87.5347718,10.8577467 C87.0306224,10.8577467 86.7791701,10.6377001 86.7791701,10.1969852 L86.7791701,3.82371406 L86.0540664,3.82371406 C85.6339419,3.82371406 85.4235685,3.61112665 85.4235685,3.18595183 C85.4235685,2.78253302 85.6339419,2.57989122 86.0540664,2.57989122 L86.7791701,2.57989122 L86.7791701,0.656658897 C86.7791701,0.218430458 87.0362241,0.000248640249 87.550332,0.000248640249 C88.023361,0.000248640249 88.2598755,0.218430458 88.2598755,0.656658897 L88.2598755,2.57989122 L91.2374689,2.57989122 C91.6476349,2.57989122 91.8524066,2.78750583 91.8524066,3.20211344 C91.8524066,3.61672106 91.6476349,3.82371406 91.2374689,3.82371406 L88.2598755,3.82371406 Z" id="Fill-60" fill="#FFFFFF"></path>
                <path d="M104.15832,10.1963015 C104.15832,10.6370163 103.906245,10.8576845 103.402095,10.8576845 C102.897946,10.8576845 102.645871,10.6376379 102.645871,10.1969231 L102.645871,5.20857809 C102.645871,4.28550117 101.811846,3.8236519 100.145041,3.8236519 L94.7201452,3.8236519 L94.7201452,10.1969231 C94.7201452,10.6376379 94.4649585,10.8576845 93.9558299,10.8576845 C93.4566598,10.8576845 93.2076971,10.6376379 93.2076971,10.1969231 L93.2076971,0.660947941 C93.2076971,0.2202331 93.4566598,0.000186480186 93.9558299,0.000186480186 C94.4649585,0.000186480186 94.7201452,0.218368298 94.7201452,0.656596737 L94.7201452,2.57982906 L99.6751245,2.57982906 C102.663921,2.57982906 104.15832,3.44261072 104.15832,5.16630925 L104.15832,10.1963015 Z" id="Fill-62" fill="#FFFFFF"></path>
                <path d="M107.545705,6.1371251 L115.550477,6.1371251 L115.550477,4.92562549 C115.550477,4.19089355 114.977863,3.82352758 113.833257,3.82352758 L109.83056,3.82352758 C108.308154,3.82352758 107.545705,4.21700078 107.545705,5.00394716 L107.545705,6.1371251 Z M117.000062,6.73324009 C117.000062,7.18576535 116.774129,7.41140637 116.322884,7.41140637 L107.545705,7.41140637 L107.545705,8.43456099 C107.545705,9.16929293 108.308154,9.5354157 109.83056,9.5354157 L116.240726,9.5354157 C116.660851,9.5354157 116.871224,9.7405439 116.871224,10.1495571 C116.871224,10.5697591 116.660851,10.7792385 116.240726,10.7792385 L110.224544,10.7792385 C107.451722,10.7792385 106.065,9.93261849 106.065,8.2412432 L106.065,5.08786325 C106.065,3.41575758 107.435539,2.57970474 110.177241,2.57970474 L113.53388,2.57970474 C115.844253,2.57970474 117.000062,3.31195027 117.000062,4.77581974 L117.000062,6.73324009 Z" id="Fill-64" fill="#FFFFFF"></path>
            </g>
        </g>
    </g>
</svg>